PathFileType	4	(X/Y/Z)	C:\Users\°ÂÌØÂü\Desktop\20201223\Trimmed_Trimmed_bx_y_10_501.trc
DataRate	CameraRate	NumFrames	NumMarkers	Units	OrigDataRate	OrigDataStartFrame	OrigNumFrames
50.00	50.00	      4	43	mm	50.00	1078	      1437
Frame#	Time	Top.Head			R.Acromium			L.Acromium			Sternum			R.ASIS			L.ASIS			V.Sacral			R.Thigh.Upper			R.Thigh.Front			R.Thigh.Rear			R.Knee.Lat			R.Knee.Med			R.Shank.Upper			R.Shank.Front			R.Shank.Rear			R.Ankle.Lat			R.Midfoot.Lat			R.Toe.Lat			R.Toe.Tip			R.Toe.Med			R.Ankle.Med			R.Midfoot.Sup			R.Heel			L.Thigh.Upper			L.Thigh.Front			L.Thigh.Rear			L.Knee.Lat			L.Knee.Med			L.Shank.Upper			L.Shank.Front			L.Shank.Rear			L.Ankle.Lat			L.Midfoot.Lat			L.Toe.Lat			L.Toe.Tip			L.Toe.Med			L.Ankle.Med			L.Midfoot.Sup			L.Heel			origin1 front left			origin2 front right			origin 3 back right			origin 4 back leftt			
		X1	Y1	Z1	X2	Y2	Z2	X3	Y3	Z3	X4	Y4	Z4	X5	Y5	Z5	X6	Y6	Z6	X7	Y7	Z7	X8	Y8	Z8	X9	Y9	Z9	X10	Y10	Z10	X11	Y11	Z11	X12	Y12	Z12	X13	Y13	Z13	X14	Y14	Z14	X15	Y15	Z15	X16	Y16	Z16	X17	Y17	Z17	X18	Y18	Z18	X19	Y19	Z19	X20	Y20	Z20	X21	Y21	Z21	X22	Y22	Z22	X23	Y23	Z23	X24	Y24	Z24	X25	Y25	Z25	X26	Y26	Z26	X27	Y27	Z27	X28	Y28	Z28	X29	Y29	Z29	X30	Y30	Z30	X31	Y31	Z31	X32	Y32	Z32	X33	Y33	Z33	X34	Y34	Z34	X35	Y35	Z35	X36	Y36	Z36	X37	Y37	Z37	X38	Y38	Z38	X39	Y39	Z39	X40	Y40	Z40	X41	Y41	Z41	X42	Y42	Z42	X43	Y43	Z43	

1078	21.540	-195.63324	242.67050	1445.97375	-353.06378	65.26730	1191.47681	-341.91031	424.34378	1189.42847	-413.57755	241.69426	1163.47742	-713.32806	146.98871	1005.05902	-718.21838	371.31448	1017.24158	-897.76868	249.52028	1086.36426	-767.99420	92.55073	876.30701	-710.26691	148.90034	831.67896	-797.84863	85.28450	728.91846	-771.11951	120.82196	591.68964	-747.38989	226.49481	548.50861	-787.48132	119.67252	521.89673	-706.91516	169.40318	544.95898	-805.31903	121.02097	446.78586	-696.25262	138.86942	210.94775	-617.05603	75.38091	165.70354	-573.16852	48.23409	159.02505	-495.15161	93.43665	161.08275	-533.87732	144.02298	165.31227	-645.61194	212.26527	227.95879	-594.70044	185.51198	176.08159	-719.53198	209.04373	170.02565	-757.96552	437.58978	866.23401	-703.81189	376.40924	825.88702	-782.75452	447.78098	731.15448	-781.27380	419.10068	605.85376	-736.43445	314.79916	564.07959	-771.92877	416.73865	545.86761	-713.79529	373.69104	537.53711	-807.57288	423.94516	482.32709	-688.04150	419.27512	209.68814	-584.68671	469.41577	163.37456	-545.95984	480.28925	158.01686	-489.94650	426.92114	167.06415	-527.00934	388.10840	176.45956	-651.12036	332.05774	211.17084	-594.37793	350.11481	173.42787	-731.84918	346.36884	165.90950	-443.52771	448.94028	146.89272	-450.56686	75.28667	144.59467	-806.21210	82.57700	142.64571	-799.53729	457.81607	145.55435	
1079	21.560	-198.71002	241.74960	1451.60864	-355.63193	64.30766	1196.35767	-343.64886	424.00885	1194.29150	-415.21460	241.65918	1166.05737	-713.45557	147.18340	1005.58295	-717.06958	371.60394	1018.18201	-898.07239	249.98514	1085.94238	-767.67993	92.91293	876.61749	-709.92542	149.14030	832.00305	-797.42401	85.66755	729.20746	-770.85229	121.17818	591.84027	-747.30286	226.61592	548.40021	-787.17737	119.97652	521.97357	-706.70532	169.55199	545.12891	-805.14624	121.28749	446.92465	-696.16589	138.99658	211.11472	-616.93488	75.48757	165.78662	-573.19495	48.27123	159.03384	-495.16965	93.28249	161.07771	-533.86157	144.05708	165.34175	-645.48083	212.30568	227.98352	-594.57593	185.58890	176.20030	-719.40240	209.10519	170.17912	-757.13599	437.72162	866.76959	-703.04456	376.48575	826.16083	-781.92932	448.07159	731.53864	-780.82593	419.38193	606.03357	-736.42932	314.95145	564.48834	-771.58301	417.03366	545.94885	-713.52637	373.97916	537.54883	-807.26263	424.31805	482.54593	-688.01233	419.59454	209.74017	-584.65387	469.37872	163.32544	-545.91864	480.39810	157.99574	-489.97736	426.86893	167.10120	-526.98657	388.08237	176.45512	-651.27612	331.89841	211.21579	-594.40680	350.24670	173.35071	-731.88727	346.60034	165.75014	-443.49280	448.92749	146.86252	-450.56934	75.28145	144.57825	-806.25702	82.60657	142.62506	-799.61658	457.84448	145.52582	
1080	21.580	-202.34436	240.93327	1457.97559	-358.26993	63.32388	1201.68225	-345.46777	423.65109	1199.48462	-416.92050	241.64314	1168.76855	-713.49329	147.37376	1006.16663	-715.84662	371.89667	1019.14478	-898.19958	250.49641	1085.53271	-767.19073	93.34337	876.89600	-709.42590	149.42876	832.37457	-796.83777	86.08863	729.57642	-770.49927	121.51250	591.96826	-747.08984	226.76601	548.32733	-786.81781	120.29552	522.12476	-706.41296	169.67125	545.30219	-804.90942	121.55675	447.18436	-696.02716	139.13483	211.30577	-616.83252	75.57970	165.87311	-573.19812	48.29596	159.02716	-495.14853	93.18706	161.06908	-533.83875	144.09805	165.38008	-645.25922	212.37335	228.01921	-594.45007	185.66463	176.34399	-719.28595	209.17860	170.34987	-756.12207	437.83157	867.26831	-702.18945	376.64389	826.48431	-780.92670	448.32080	731.93585	-780.25317	419.65750	606.26752	-736.26532	314.86612	565.17725	-771.15057	417.29822	546.06110	-713.19330	374.23285	537.59369	-806.92200	424.67001	482.76505	-688.01459	419.85785	209.77939	-584.61920	469.33224	163.26520	-545.86890	480.51871	157.98758	-489.99438	426.81451	167.14511	-526.96558	388.04971	176.43384	-651.38116	331.79907	211.30171	-594.42303	350.33109	173.30267	-731.95343	346.86322	165.52290	-443.46115	448.91669	146.81712	-450.57831	75.26823	144.58723	-806.34204	82.64613	142.57437	-799.67371	457.82040	145.52382	
1081	21.600	-206.69305	240.19328	1465.08203	-361.02194	62.30092	1207.39795	-347.43097	423.31738	1204.96265	-418.69507	241.64667	1171.60974	-713.43579	147.55875	1006.81134	-714.55017	372.19226	1020.12866	-898.15265	251.03249	1085.17371	-766.54749	93.85703	877.06653	-708.80994	149.73370	832.78107	-796.15204	86.44934	730.06726	-770.09106	121.78810	592.10541	-746.74939	226.94099	548.29095	-786.49908	120.63132	522.34235	-706.04150	169.76575	545.44702	-804.66138	121.83138	447.52133	-695.87091	139.27232	211.47791	-616.78528	75.64572	165.93274	-573.19379	48.30495	159.00929	-495.10968	93.14480	161.05412	-533.82843	144.11195	165.41470	-644.99628	212.47075	228.08490	-594.35883	185.70544	176.48158	-719.19080	209.28529	170.49118	-754.86279	438.00638	867.72083	-701.24805	376.79874	826.85675	-779.72314	448.52863	732.32214	-779.52942	419.96448	606.57971	-735.87744	314.62280	566.03705	-770.58618	417.53430	546.23761	-712.77332	374.43536	537.67651	-806.49457	424.98413	482.94629	-688.03955	420.01196	209.78679	-584.59424	469.30188	163.22781	-545.81842	480.62109	157.98810	-489.97540	426.76678	167.17194	-526.94226	388.00143	176.40694	-651.43103	331.75186	211.41127	-594.45532	350.33908	173.26894	-732.00977	347.08194	165.34497	-443.43564	448.91708	146.79012	-450.60315	75.26292	144.60678	-806.41473	82.67913	142.51871	-799.64801	457.79919	145.55554	
